<?xml version="1.0" encoding="UTF-8"?>
<svg id="Layer_2" data-name="Layer 2" xmlns="http://www.w3.org/2000/svg" viewBox="0 0 133.81 108.37">
  <defs>
    <style>
      .cls-1 {
        fill: #304f56;
      }

      .cls-2, .cls-3 {
        fill: #c69a7b;
      }

      .cls-3 {
        stroke: #304f56;
        stroke-miterlimit: 10;
      }
    </style>
  </defs>
  <g id="Layer_1-2" data-name="Layer 1">
    <g>
      <path class="cls-3" d="M53.02,73.99s-6.2,23.59-22.15,32.77c-15.95,9.18-20.57-41.62-20.57-41.62"/>
      <path class="cls-3" d="M96.53,55.94s17.43,10.47,32.29,6.67c14.86-3.8-11.94-36.81-11.94-36.81"/>
      <path class="cls-3" d="M17.5,46.5C4.02,51.51,3.16,62.28,.72,66.84c-2.44,4.56,16.48,12.97,16.48,12.97l27.99,10.75c7.01,3.01,13.67-15.71,13.67-15.71"/>
      <path class="cls-3" d="M32.21,18.58c-17.3,3.34-20.5,16.18-24.37,21.19-3.87,5.01,17.29,18.99,17.29,18.99l31.64,18.63c7.86,5.04,19.67-16.22,19.67-16.22"/>
      <path class="cls-3" d="M91.88,12.74c11.68-7.48,19.66-2.4,24.3-1.82,4.64,.58-1.06,19.3-1.06,19.3l-9.6,26.79c-2.19,6.88-19.19,1.94-19.19,1.94"/>
      <path class="cls-3" d="M63.22,12.48C73.15-.6,84.08,1.79,89.48,.55s6.7,21.88,6.7,21.88l.25,33.68c.37,8.53-20.53,9.98-20.53,9.98"/>
      <path class="cls-3" d="M29.73,28.11c-4.98-7.56-7.99-13.25-6.61-14.15,0,0,22.83-16.43,38.92-12.44,16.09,3.99,27.16,58.63,27.16,58.63,0,0-16.7,20.49-24.12,13.55-5.05-4.73-24.72-29.42-35.36-45.58"/>
      <g>
        <path class="cls-2" d="M41.7,61.51s-19.17-10.29-26.41-19.57"/>
        <path class="cls-1" d="M41.7,61.51c-9.63-5.15-19.49-10.94-26.41-19.57,0,0,1.38,1.53,1.38,1.53,7.33,7.28,16.25,12.69,25.03,18.04h0Z"/>
      </g>
      <g>
        <path class="cls-2" d="M46.52,85.61s-10.4-3.21-14.84-7.07"/>
        <path class="cls-1" d="M46.52,85.61c-5.27-1.44-10.72-3.36-14.84-7.07,4.45,3.12,9.84,5.01,14.84,7.07h0Z"/>
      </g>
      <g>
        <path class="cls-2" d="M69.02,67.14s-25.99-29.15-30.94-47.29"/>
        <path class="cls-1" d="M69.02,67.14c-6.38-7.01-12.32-14.44-17.77-22.19-5.32-7.79-10.61-15.93-13.17-25.1,0,0,1.17,3.35,1.17,3.35,7.14,16.29,18.6,30.25,29.76,43.94h0Z"/>
      </g>
    </g>
  </g>
</svg>