<?xml version="1.0" encoding="UTF-8"?>
<svg id="Layer_2" data-name="Layer 2" xmlns="http://www.w3.org/2000/svg" viewBox="0 0 198.77 155.46">
  <defs>
    <style>
      .cls-1 {
        fill: #304f56;
      }

      .cls-2, .cls-3 {
        fill: #c69a7b;
      }

      .cls-3 {
        stroke: #304f56;
        stroke-miterlimit: 10;
      }
    </style>
  </defs>
  <g id="Layer_1-2" data-name="Layer 1">
    <g>
      <path class="cls-3" d="M158.15,52.05s-11.88,1.26-18.86-4.45c-6.98-5.71,15.49-16.65,15.49-16.65"/>
      <path class="cls-3" d="M173.97,68.85s-1.77,9.8,2.55,15.95c4.32,6.15,14.79-11.86,14.79-11.86"/>
      <path class="cls-3" d="M164.58,31.01c-4.64-5.31-9.72-3.83-12.23-4.16s-3.08,9.8-3.08,9.8l-.07,14.69c-.16,3.73,9.57,3.53,9.57,3.53"/>
      <path class="cls-3" d="M179.92,32.9c-4.53-7.34-10.97-6.58-13.94-7.48s-5.7,11.22-5.7,11.22l-3.04,17.73c-.95,4.48,10.84,6.19,10.84,6.19"/>
      <path class="cls-3" d="M192.95,59.22c5.46,4.05,4.51,8.59,5.05,10.81s-9.02,2.87-9.02,2.87l-13.94,.25c-3.53,.19-4.22-8.45-4.22-8.45"/>
      <path class="cls-3" d="M188.1,46.05c7.71,2.28,8.51,7.7,10.02,9.96s-8.86,6.87-8.86,6.87l-15.38,5.96c-3.84,1.65-8.14-7.67-8.14-7.67"/>
      <path class="cls-3" d="M175.12,33.42c2.6-3.59,4.68-5.96,5.34-5.48,0,0,11.49,7.6,12.46,15.67,.97,8.07-22.14,22.62-22.14,22.62,0,0-12.28-4.09-10.39-8.7,1.29-3.14,9.19-16.43,14.74-24.11"/>
      <g>
        <path class="cls-2" d="M161.9,44.7s1.38-10.57,4.38-15.5"/>
        <path class="cls-1" d="M161.9,44.7c.51-5.32,1.48-10.91,4.38-15.5-2.27,4.81-3.21,10.33-4.38,15.5h0Z"/>
      </g>
      <g>
        <path class="cls-2" d="M151.7,51.09s-.34-5.32,.66-8.02"/>
        <path class="cls-1" d="M151.7,51.09c-.43-2.64-.49-5.55,.66-8.02-.48,2.67-.41,5.32-.66,8.02h0Z"/>
      </g>
      <g>
        <path class="cls-2" d="M164.06,58.19s8.84-16.96,16.29-22.38"/>
        <path class="cls-1" d="M164.06,58.19c2.02-4.19,4.38-8.21,6.98-12.06,2.66-3.78,5.49-7.63,9.32-10.32,0,0-1.31,1.14-1.31,1.14-6.12,6.19-10.51,13.83-14.98,21.24h0Z"/>
      </g>
    </g>
    <g>
      <path class="cls-1" d="M33.43,40.51c-.27,.32-.49,.55-.76,.65s-.69-.22-.76-.42c-.1-.27,0-.46,.28-.94,1.11-1.84,5.03-6.96,3.21-12.13-1.13-3.19-4.06-4.37-9.43-2.48-9.17,3.23-16.73,13.61-13.43,22.98,3.78,10.73,22,9.35,27,23.54,4.09,11.61-4.31,30-18.44,34.98-9.78,3.45-17.27-.71-19.91-8.18-4.45-12.63,4.48-25.63,11.2-28,4.21-1.48,8.27,.29,9.76,4.5,2.37,6.72-2.19,13.29-3.34,15-.2,.3-.38,.44-.58,.51-.27,.1-.71-.06-.83-.4-.1-.27,0-.46,.24-.85,1.09-1.68,4.5-7.16,2.27-13.48-1.13-3.19-3.49-4.27-6.75-3.12-6.18,2.18-13.71,13.31-9.64,24.85,2.35,6.66,8.35,10.04,17.04,6.97,12.56-4.43,20.13-21.07,16.33-31.87-4.72-13.38-22.56-11.59-26.8-23.61-3.54-10.05,4.6-22.47,15.06-26.15,6.32-2.23,10.87-.78,12.52,3.91,1.99,5.64-2.69,11.87-4.25,13.71Z"/>
      <path class="cls-1" d="M49.79,65.51c-2.38,.84-4.69-.1-5.51-2.41-2.3-6.52,3.08-19.64,5.39-20.45,.68-.24,1.26,.32,1.4,.73,.05,.14,.08,.43-.19,.75-1.87,2.49-6.1,12.15-4.11,17.79,.6,1.7,1.44,1.93,2.53,1.55,2.1-.74,4.74-4.95,6.77-10.02,2.09-5.32,2.68-8.43,3.29-8.64,.82-.29,1.42,.34,1.61,.88,.22,.61-1.72,4.65-.57,7.91,.74,2.1,2.21,2.58,3.84,2.01,1.09-.38,2.16-1.45,3-2.97-.14-.18-.21-.38-.28-.59-.29-.81,.35-2.26,1.3-2.6l.2-.07c.58-2.26,.62-4.95-.22-7.33-.62-1.77-1.33-2.05-1.45-2.39-.07-.2,.01-.62,.35-.73,.54-.19,2.72,.57,3.53,2.88,1.08,3.06,.66,6.64-.49,9.64,.67,.83,2,1.13,3.56,.58,2.65-.93,5.09-3.09,6.9-7.7,0,0,.2-.53,.54-.65s.89,.14,1.01,.48c.1,.27-.1,.8-.1,.8-2.08,4.93-4.9,7.76-8.09,8.88-1.9,.67-3.79,.73-5.14,.13-1.17,1.86-2.68,3.23-4.24,3.78-2.58,.91-5.72,.03-6.73-3.51-2.16,5.34-5.65,10.39-8.1,11.25Z"/>
      <path class="cls-1" d="M89.89,51.91c-3.67,1.29-7.42,.17-8.79-3.7-2.23-6.32,3.84-16.17,9.07-18.01,2.1-.74,3.96-.02,4.56,1.68,1.44,4.07-6.35,11.02-11.48,14.43,0,.46,.15,.86,.3,1.27,.84,2.38,3.13,3.25,5.64,2.36,8.15-2.87,11.69-12.75,11.69-12.75,0,0,.2-.53,.54-.65,.41-.14,.89,.14,1.01,.48,.1,.27-.1,.8-.1,.8,0,0-4.57,11.31-12.44,14.08Zm-6.72-7.79c4.68-3.18,10.46-8.88,9.45-11.73-.07-.2-.49-.74-1.51-.38-3.74,1.32-7.46,7.21-7.95,12.12Z"/>
      <path class="cls-1" d="M110.46,44.65c-3.67,1.29-7.42,.17-8.79-3.7-2.23-6.32,3.84-16.17,9.07-18.01,2.1-.74,3.96-.02,4.56,1.68,1.44,4.07-6.35,11.02-11.48,14.43,0,.46,.15,.86,.3,1.27,.84,2.38,3.13,3.25,5.64,2.36,8.15-2.87,11.69-12.75,11.69-12.75,0,0,.2-.53,.54-.65,.41-.14,.89,.14,1.01,.48,.1,.27-.1,.8-.1,.8,0,0-4.57,11.31-12.44,14.08Zm-6.72-7.79c4.68-3.18,10.46-8.88,9.45-11.73-.07-.2-.49-.74-1.51-.38-3.74,1.32-7.46,7.21-7.95,12.12Z"/>
      <path class="cls-1" d="M117.07,18.58c-.34,.12-.82,.06-.99-.42-.24-.68,.6-2.2,3.38-3.18,1.29-.45,2.9-.87,4.6-1.24,1.76-6.04,3.86-11.13,4.47-12.65,.24-.62,.51-.94,.78-1.04,.75-.26,1.44,.41,1.59,.82,.12,.34-.04,.55-.34,1.42-.52,1.33-2.34,5.71-4,10.95,2.72-.5,5.22-1,6.78-1.55,.81-.29,1.05-.06,1.14,.21,.17,.48-.41,1.44-1.02,1.66-1.77,.62-4.69,1.2-7.53,1.81-1.7,6.02-2.69,12.94-.95,17.89,.53,1.49,1.71,1.61,2.66,1.27,4.75-1.68,8.06-9.63,8.06-9.63,0,0,.2-.53,.47-.62,.41-.14,.96,.12,1.08,.46,.1,.27-.1,.8-.1,.8,0,0-3.85,9.22-9.42,11.18-2.17,.77-4.37-.06-5.21-2.44-1.7-4.82-.71-11.97,.98-18.44-1.41,.34-2.74,.66-3.76,1.02-2.04,.72-2.21,1.54-2.68,1.71Z"/>
      <path class="cls-1" d="M44.43,130.64c.82-.29,1.11-.09,1.23,.25,.17,.48-.37,.89-1.32,1.23-3.94,1.39-16.45,.99-20.73-11.17-4.29-12.16,4.5-27.09,22.36-33.38,9.1-3.21,16.91-4.66,23.58-5.87,2.53-3.64,6.01-6.55,10.9-8.27,4.41-1.56,8.16-.89,8.97,1.42,.72,2.04-.72,4.45-4.12,5.65-3.94,1.39-8.75,2.25-14.36,3.23-12.48,20.05,3.65,62.77-19.64,70.98-7.95,2.8-14.06-3.06-14.3-3.74-.1-.27,.15-.66,.35-.73,.54-.19,5.89,5.02,13.57,2.32,19.15-6.75,5.86-47.26,17.02-68.23-6.15,1.18-13.19,2.66-21,5.42-17.05,6.01-24.3,20.09-20.51,30.82s14.11,11.44,17.98,10.08Zm28.44-49.5c4.09-.75,7.72-1.5,10.84-2.6,2.85-1.01,3.61-2.11,3.25-3.13-.41-1.15-2.64-1.21-5.22-.3-3.8,1.34-6.66,3.42-8.87,6.03Z"/>
      <path class="cls-1" d="M96.13,110.97s.2-.53,.54-.65,.89,.14,1.01,.48c.1,.27-.1,.8-.1,.8-2.17,4.89-4.55,6.8-8.29,8.11-.41,.14-.75,.26-1.18,.34-1.64,2.72-3.88,4.8-6.05,5.57-2.99,1.05-5.99-.1-7.12-3.29-.93-2.65-.58-5.98,.64-9.01-1.51-4.51,1.33-10.09,6.29-11.84,4.21-1.48,7.25,.65,8.57,4.39s.6,8.19-1.14,11.93l.07-.02c2.99-1.05,5.23-3.14,6.76-6.81Zm-10.8,9.23c-2.99-.24-6.22-1.62-8.25-4.12-.28,2.01-.21,3.97,.37,5.6s1.78,2.66,3.95,1.89c1.36-.48,2.77-1.66,3.93-3.37Zm1.17-1.86c1.97-3.52,2.91-8.2,1.67-11.73-.89-2.51-3.07-3.96-5.38-3.14-2.92,1.03-5.11,3.71-5.49,6.52,1.53-2.37,3.52-4.3,5.77-5.09,.88-.31,1.36-.25,1.51,.16,.19,.54-.24,.85-.69,1.08-2.82,1.3-4.99,4.05-6.09,7.19,1.56,3.57,5.26,5.17,8.72,5.02Z"/>
      <path class="cls-1" d="M117.45,103.45s.2-.53,.54-.65,.89,.14,1.01,.48c.1,.27-.1,.8-.1,.8-2.17,4.89-4.55,6.8-8.29,8.11-.41,.14-.75,.26-1.18,.34-1.64,2.72-3.88,4.8-6.05,5.57-2.99,1.05-5.99-.1-7.12-3.29-.93-2.65-.58-5.98,.64-9.01-1.51-4.51,1.33-10.09,6.29-11.84,4.21-1.48,7.25,.65,8.57,4.39s.6,8.19-1.14,11.93l.07-.02c2.99-1.05,5.23-3.14,6.76-6.81Zm-10.8,9.23c-2.99-.24-6.22-1.62-8.25-4.12-.28,2.01-.21,3.97,.37,5.6s1.78,2.66,3.95,1.89c1.36-.48,2.77-1.66,3.93-3.37Zm1.17-1.86c1.97-3.52,2.91-8.2,1.67-11.73-.89-2.51-3.07-3.96-5.38-3.14-2.92,1.03-5.11,3.71-5.49,6.52,1.53-2.37,3.52-4.3,5.77-5.09,.88-.31,1.36-.25,1.51,.16,.19,.54-.24,.85-.69,1.08-2.82,1.3-4.99,4.05-6.09,7.19,1.56,3.57,5.26,5.17,8.72,5.02Z"/>
      <path class="cls-1" d="M113.06,92.09c-.34,.12-.82,.06-.99-.42-.24-.68,.6-2.2,3.38-3.18,1.29-.45,2.9-.87,4.6-1.24,1.76-6.04,3.86-11.13,4.47-12.65,.24-.62,.51-.94,.78-1.04,.75-.26,1.44,.41,1.59,.82,.12,.34-.04,.55-.34,1.42-.52,1.33-2.34,5.71-4,10.95,2.72-.5,5.22-1,6.78-1.55,.81-.29,1.05-.06,1.14,.21,.17,.48-.41,1.44-1.02,1.66-1.77,.62-4.69,1.2-7.53,1.81-1.7,6.02-2.69,12.94-.95,17.89,.53,1.49,1.71,1.61,2.66,1.27,4.75-1.68,8.06-9.63,8.06-9.63,0,0,.2-.53,.47-.62,.41-.14,.96,.12,1.08,.46,.1,.27-.1,.8-.1,.8,0,0-3.85,9.22-9.42,11.18-2.17,.77-4.37-.06-5.21-2.44-1.7-4.82-.71-11.97,.98-18.44-1.41,.34-2.74,.66-3.76,1.02-2.04,.72-2.21,1.54-2.68,1.71Z"/>
      <path class="cls-1" d="M152.39,100.14c-2.04,.72-3.87,.07-4.56-1.9-1.51-4.28,3.44-10.6,2.51-13.25-.24-.68-.74-.58-.94-.51-2.99,1.05-11.55,14.45-15.01,22.39-.42,.99-.52,1.56-1.54,1.92-.61,.22-1.35-.14-1.56-.75-.24-.68,.58-8.53,1.46-14.71,2.11-14.79,6.15-29.12,13.08-31.56,2.24-.79,4.13,.23,4.77,2.06,2.08,5.91-9.43,23.71-15.69,33.47-.64,2.29-1.12,6.58-1.12,6.58,3.27-7.18,11.47-20.31,15.21-21.62,1.63-.57,3.1,.13,3.72,1.89,1.24,3.53-3.63,10.06-2.53,13.18,.29,.81,.79,1.17,2.02,.74,4.82-1.7,7.96-9.68,7.96-9.68,0,0,.2-.53,.54-.65,.41-.14,.89,.14,1.01,.48,.1,.27-.1,.8-.1,.8,0,0-3.85,9.22-9.21,11.11Zm-17.4-6.47c5.06-7.97,15.23-24.38,13.48-29.34-.24-.68-.84-1.08-1.86-.72-5.03,1.77-9.47,14.72-11.62,30.06Z"/>
    </g>
  </g>
</svg>